# xmcd
#
# Track frame offsets:
#	150
#	7785
#	24702
#	42767
#	57557
#	78132
#	96902
#	117315
#	135040
#	145175
#	163257
#	182107
#	199885
#
# Disc length: 2920 seconds
#
# Revision: 7
# Processed by: cddbd v1.5PL3 Copyright (c) Steve Scherf et al.
# Submitted via: CDex 1.50Beta5
#
DISCID=a60b660d
DTITLE=FANATIC◇CRISIS - 5
DYEAR=2002
DGENRE=Rock
TTITLE0=movable-pleasure-ground from galaxy(instrumental)
TTITLE1=シンセカイ
TTITLE2=ドラキラ<5Mix>
TTITLE3=Rock’n Roll is dead?
TTITLE4=Dragon sphere
TTITLE5=スプートニク-旅人たち-<5Mix>
TTITLE6=JAPANESQUE
TTITLE7=LOVE MONSTER
TTITLE8=Rainy day
TTITLE9=again
TTITLE10=ダウンコード
TTITLE11=EXIT
TTITLE12=黄金の月
EXTD=
EXTT0=
EXTT1=
EXTT2=
EXTT3=
EXTT4=
EXTT5=
EXTT6=
EXTT7=
EXTT8=
EXTT9=
EXTT10=
EXTT11=
EXTT12=
PLAYORDER=
